<svg version="1.1" id="Layer_1" xmlns="http://www.w3.org/2000/svg" xmlns:xlink="http://www.w3.org/1999/xlink" x="0px" y="0px"
	 width="100%" viewBox="0 0 1000 1000" enable-background="new 0 0 1000 1000" xml:space="preserve">
<path fill="#FFFFFF" opacity="1.000000" stroke="none" 
	d="
M655.000000,1001.000000 
	C436.666656,1001.000000 218.833328,1001.000000 1.000000,1001.000000 
	C1.000000,667.666687 1.000000,334.333344 1.000000,1.000000 
	C334.333344,1.000000 667.666687,1.000000 1001.000000,1.000000 
	C1001.000000,334.333344 1001.000000,667.666687 1001.000000,1001.000000 
	C885.833313,1001.000000 770.666687,1001.000000 655.000000,1001.000000 
M505.751190,128.196136 
	C505.751190,121.228233 505.751190,114.260330 505.751190,107.839584 
	C436.168121,83.451256 367.602448,59.419514 298.960175,35.360931 
	C298.960175,274.646240 298.960175,513.868042 298.960175,753.135132 
	C305.785339,751.110168 312.379913,749.153625 318.977356,748.107483 
	C318.977356,754.225769 318.977356,760.344116 318.977356,767.223694 
	C321.626129,766.618713 323.542694,766.364014 325.331818,765.742432 
	C336.414703,761.891907 347.444489,757.887878 358.538574,754.070496 
	C374.486938,748.582764 390.495026,743.268555 406.440277,737.771973 
	C419.429871,733.294250 432.312653,728.501709 445.343719,724.151001 
	C452.920715,721.621216 453.011932,721.889343 453.011932,713.902832 
	C453.012299,589.134521 452.989624,464.366180 453.071777,339.597870 
	C453.076385,332.568390 453.942627,325.539490 454.448242,317.899750 
	C463.644012,321.218140 472.254791,324.545654 481.014404,327.419464 
	C488.548981,329.891418 496.253448,331.845612 504.025330,334.953186 
	C504.074677,337.952087 504.167145,340.950989 504.167206,343.949890 
	C504.170837,546.729065 504.166992,749.508301 504.163788,952.287476 
	C504.163757,954.033630 504.163788,955.779785 504.163788,958.515991 
	C506.917450,957.433777 508.653656,956.684631 510.434082,956.062012 
	C530.738770,948.961426 551.054688,941.892944 571.358643,934.790283 
	C592.309692,927.461365 613.250000,920.101868 634.196472,912.759827 
	C657.948181,904.434509 681.638184,895.924377 705.503418,887.937805 
	C710.795593,886.166748 712.275024,883.602539 712.260559,878.294922 
	C712.109680,822.811096 712.210510,767.326660 712.208679,711.842346 
	C712.205139,605.039124 712.155273,498.235901 712.253296,391.432831 
	C712.257385,387.006287 711.153259,384.060577 706.863159,382.591827 
	C694.133423,378.233582 681.422852,373.819458 668.691772,369.465088 
	C651.083679,363.442535 633.434448,357.538971 615.857300,351.427673 
	C598.761108,345.483582 581.715637,339.392151 564.682068,333.270355 
	C551.740845,328.619263 538.853088,323.819122 526.285034,318.305695 
	C526.523743,316.351562 526.969666,314.397583 526.970886,312.443298 
	C527.007263,255.214325 526.999390,197.985321 526.998596,140.756317 
	C526.998535,139.119781 526.998535,137.483246 526.998535,135.226700 
	C519.853760,133.108063 512.926392,131.053894 505.751190,128.196136 
z"/>
<path fill="#8F8F8F" opacity="1.000000" stroke="none" 
	d="
M525.941589,319.085327 
	C538.853088,323.819122 551.740845,328.619263 564.682068,333.270355 
	C581.715637,339.392151 598.761108,345.483582 615.857300,351.427673 
	C633.434448,357.538971 651.083679,363.442535 668.691772,369.465088 
	C681.422852,373.819458 694.133423,378.233582 706.863159,382.591827 
	C711.153259,384.060577 712.257385,387.006287 712.253296,391.432831 
	C712.155273,498.235901 712.205139,605.039124 712.208679,711.842346 
	C712.210510,767.326660 712.109680,822.811096 712.260559,878.294922 
	C712.275024,883.602539 710.795593,886.166748 705.503418,887.937805 
	C681.638184,895.924377 657.948181,904.434509 634.196472,912.759827 
	C613.250000,920.101868 592.309692,927.461365 571.358643,934.790283 
	C551.054688,941.892944 530.738770,948.961426 510.434082,956.062012 
	C508.653656,956.684631 506.917450,957.433777 504.163788,958.515991 
	C504.163788,955.779785 504.163757,954.033630 504.163788,952.287476 
	C504.166992,749.508301 504.170837,546.729065 504.167206,343.949890 
	C504.167145,340.950989 504.074677,337.952087 504.017090,334.023682 
	C504.021362,326.720001 504.033905,320.345764 504.362061,313.914001 
	C505.131927,313.221893 505.586212,312.587372 506.372498,312.100250 
	C513.116821,314.526886 519.529236,316.806091 525.941589,319.085327 
z"/>
<path fill="#5D5D5D" opacity="1.000000" stroke="none" 
	d="
M506.040497,311.952850 
	C505.586212,312.587372 505.131927,313.221893 504.029602,313.763000 
	C480.529480,305.613281 457.677399,297.557037 433.980713,289.203003 
	C433.980713,429.176178 433.980713,567.769836 433.980713,706.349854 
	C430.444122,707.527954 427.324188,708.516479 424.238770,709.603027 
	C398.160553,718.786072 372.075989,727.951355 346.021790,737.202209 
	C336.964905,740.417908 327.987946,743.858948 318.974487,747.197021 
	C312.379913,749.153625 305.785339,751.110168 298.960175,753.135132 
	C298.960175,513.868042 298.960175,274.646240 298.960175,35.360931 
	C367.602448,59.419514 436.168121,83.451256 505.751190,107.839584 
	C505.751190,114.260330 505.751190,121.228233 505.722443,128.589508 
	C505.693695,128.982864 505.392517,128.929657 505.072113,129.115875 
	C504.936462,132.925964 505.121216,136.549850 505.421814,140.503937 
	C505.454132,141.519974 505.370575,142.205841 505.071350,143.005219 
	C505.010590,143.452042 505.165527,143.785339 505.444275,144.474823 
	C505.492584,145.822906 505.417053,146.814835 505.013672,148.037659 
	C504.901825,149.907837 505.117828,151.547104 505.453247,153.540298 
	C505.494019,154.876877 505.415375,155.859558 505.050751,157.007950 
	C504.960632,157.836288 505.156464,158.498901 505.469788,159.482147 
	C505.508301,160.471191 505.429291,161.139618 505.027710,162.024872 
	C504.918518,163.556732 505.131927,164.871780 505.460205,166.507935 
	C505.492493,167.497070 505.409943,168.165070 504.998657,169.064026 
	C504.907471,170.935959 505.145050,172.576935 505.490326,174.570663 
	C505.516663,175.893600 505.435272,176.863785 505.066101,177.997742 
	C504.964142,178.825668 505.149933,179.489822 505.450684,180.423782 
	C505.482880,181.067215 505.400177,181.440826 504.973206,182.085037 
	C504.865356,185.968597 505.101776,189.581543 505.453491,193.564240 
	C505.505219,195.213913 505.441711,196.493851 505.030945,198.034409 
	C504.901154,201.262009 505.118652,204.228958 505.444214,207.462036 
	C505.469452,208.093567 505.386658,208.458969 504.960907,209.095032 
	C504.858856,212.976730 505.099731,216.587753 505.446777,220.465790 
	C505.471802,221.098923 505.390686,221.465057 505.004669,222.038712 
	C504.942474,223.814423 505.185150,225.382614 505.553894,227.349487 
	C505.591309,228.847885 505.502655,229.947586 505.151184,231.128830 
	C505.044983,231.869278 505.201569,232.528183 505.463440,233.511124 
	C505.482788,234.501923 505.396881,235.168701 504.968384,236.098663 
	C504.880402,239.890030 505.134979,243.418182 505.515533,247.326523 
	C505.545074,248.489441 505.448639,249.272186 505.063843,250.169998 
	C504.988373,251.840073 505.201202,253.395065 505.534241,255.293152 
	C505.573090,256.106995 505.491730,256.577728 505.119629,257.148010 
	C505.001892,258.227631 505.174896,259.207733 505.455017,260.509705 
	C505.476837,261.494965 505.391541,262.158264 504.964600,263.088440 
	C504.862457,266.637878 505.101929,269.920532 505.458069,273.632507 
	C505.507874,277.308105 505.441040,280.554413 505.060425,284.000458 
	C504.951508,285.196564 505.156372,286.192871 505.483337,287.625488 
	C505.750458,296.025482 505.895477,303.989166 506.040497,311.952850 
z"/>
<path fill="#EBEBEB" opacity="1.000000" stroke="none" 
	d="
M318.975922,747.652222 
	C327.987946,743.858948 336.964905,740.417908 346.021790,737.202209 
	C372.075989,727.951355 398.160553,718.786072 424.238770,709.603027 
	C427.324188,708.516479 430.444122,707.527954 433.980713,706.349854 
	C433.980713,567.769836 433.980713,429.176178 433.980713,289.203003 
	C457.677399,297.557037 480.529480,305.613281 503.713989,313.820557 
	C504.033905,320.345764 504.021362,326.720001 503.945801,333.561462 
	C496.253448,331.845612 488.548981,329.891418 481.014404,327.419464 
	C472.254791,324.545654 463.644012,321.218140 454.448242,317.899750 
	C453.942627,325.539490 453.076385,332.568390 453.071777,339.597870 
	C452.989624,464.366180 453.012299,589.134521 453.011932,713.902832 
	C453.011932,721.889343 452.920715,721.621216 445.343719,724.151001 
	C432.312653,728.501709 419.429871,733.294250 406.440277,737.771973 
	C390.495026,743.268555 374.486938,748.582764 358.538574,754.070496 
	C347.444489,757.887878 336.414703,761.891907 325.331818,765.742432 
	C323.542694,766.364014 321.626129,766.618713 318.977356,767.223694 
	C318.977356,760.344116 318.977356,754.225769 318.975922,747.652222 
z"/>
<path fill="#ECECEC" opacity="1.000000" stroke="none" 
	d="
M505.341553,147.806747 
	C505.417053,146.814835 505.492584,145.822906 505.502686,144.166016 
	C505.387146,143.297897 505.337097,143.094788 505.287018,142.891693 
	C505.370575,142.205841 505.454132,141.519974 505.529114,140.094055 
	C505.477875,135.879227 505.435181,132.404434 505.392517,128.929657 
	C505.392517,128.929657 505.693695,128.982864 505.846375,128.991287 
	C512.926392,131.053894 519.853760,133.108063 526.998535,135.226700 
	C526.998535,137.483246 526.998535,139.119781 526.998596,140.756317 
	C526.999390,197.985321 527.007263,255.214325 526.970886,312.443298 
	C526.969666,314.397583 526.523743,316.351562 526.113281,318.695496 
	C519.529236,316.806091 513.116821,314.526886 506.372498,312.100250 
	C505.895477,303.989166 505.750458,296.025482 505.584351,287.207306 
	C505.500214,285.502106 505.437195,284.651398 505.374207,283.800690 
	C505.441040,280.554413 505.507874,277.308105 505.557343,273.163788 
	C505.462067,269.117706 505.384125,265.969635 505.306213,262.821594 
	C505.391541,262.158264 505.476837,261.494965 505.578735,260.211243 
	C505.533722,258.743408 505.472046,257.895935 505.410400,257.048462 
	C505.491730,256.577728 505.573090,256.106995 505.640442,254.893127 
	C505.535065,252.784958 505.443634,251.419937 505.352203,250.054916 
	C505.448639,249.272186 505.545074,248.489441 505.632629,246.898804 
	C505.519501,242.672409 505.415253,239.253937 505.310974,235.835464 
	C505.396881,235.168701 505.482788,234.501923 505.580444,233.257507 
	C505.532837,232.135681 505.473419,231.591476 505.414001,231.047287 
	C505.502655,229.947586 505.591309,228.847885 505.655823,226.996948 
	C505.524292,224.774200 505.416931,223.302704 505.309570,221.831192 
	C505.390686,221.465057 505.471802,221.098923 505.581787,220.087433 
	C505.508392,215.902847 505.406097,212.363602 505.303833,208.824356 
	C505.386658,208.458969 505.469452,208.093567 505.576385,207.089905 
	C505.526428,203.559036 505.452332,200.666397 505.378235,197.773773 
	C505.441711,196.493851 505.505219,195.213913 505.558655,193.164886 
	C505.471527,188.868668 505.394470,185.341553 505.317444,181.814438 
	C505.400177,181.440826 505.482880,181.067215 505.545288,180.041153 
	C505.467926,178.870468 505.410919,178.352219 505.353882,177.833969 
	C505.435272,176.863785 505.516663,175.893600 505.607544,174.252319 
	C505.520477,171.998505 505.423950,170.415787 505.327393,168.833084 
	C505.409943,168.165070 505.492493,167.497070 505.558716,166.075562 
	C505.478363,164.150726 505.414307,162.979385 505.350281,161.808044 
	C505.429291,161.139618 505.508301,160.471191 505.558990,159.098145 
	C505.466034,157.876419 505.401398,157.359314 505.336731,156.842224 
	C505.415375,155.859558 505.494019,154.876877 505.554016,153.098083 
	C505.470795,150.803558 505.406158,149.305161 505.341553,147.806747 
z"/>
<path fill="#4F4F4F" opacity="1.000000" stroke="none" 
	d="
M504.968414,236.098663 
	C505.415253,239.253937 505.519501,242.672409 505.506653,246.518616 
	C505.134979,243.418182 504.880402,239.890030 504.968414,236.098663 
z"/>
<path fill="#4F4F4F" opacity="1.000000" stroke="none" 
	d="
M505.072113,129.115875 
	C505.435181,132.404434 505.477875,135.879227 505.413269,139.763870 
	C505.121216,136.549850 504.936462,132.925964 505.072113,129.115875 
z"/>
<path fill="#4F4F4F" opacity="1.000000" stroke="none" 
	d="
M504.960876,209.095032 
	C505.406097,212.363602 505.508392,215.902847 505.475647,219.820435 
	C505.099731,216.587753 504.858856,212.976730 504.960876,209.095032 
z"/>
<path fill="#4F4F4F" opacity="1.000000" stroke="none" 
	d="
M504.973175,182.085037 
	C505.394470,185.341553 505.471527,188.868668 505.443420,192.795135 
	C505.101776,189.581543 504.865356,185.968597 504.973175,182.085037 
z"/>
<path fill="#4F4F4F" opacity="1.000000" stroke="none" 
	d="
M505.030945,198.034409 
	C505.452332,200.666397 505.526428,203.559036 505.468323,206.823792 
	C505.118652,204.228958 504.901154,201.262009 505.030945,198.034409 
z"/>
<path fill="#4F4F4F" opacity="1.000000" stroke="none" 
	d="
M504.964600,263.088440 
	C505.384125,265.969635 505.462067,269.117706 505.440674,272.734436 
	C505.101929,269.920532 504.862457,266.637878 504.964600,263.088440 
z"/>
<path fill="#4F4F4F" opacity="1.000000" stroke="none" 
	d="
M505.063843,250.169998 
	C505.443634,251.419937 505.535065,252.784958 505.520264,254.550018 
	C505.201202,253.395065 504.988373,251.840073 505.063843,250.169998 
z"/>
<path fill="#4F4F4F" opacity="1.000000" stroke="none" 
	d="
M504.998657,169.064026 
	C505.423950,170.415787 505.520477,171.998505 505.499817,173.899567 
	C505.145050,172.576935 504.907471,170.935959 504.998657,169.064026 
z"/>
<path fill="#4F4F4F" opacity="1.000000" stroke="none" 
	d="
M505.004669,222.038712 
	C505.416931,223.302704 505.524292,224.774200 505.529785,226.598267 
	C505.185150,225.382614 504.942474,223.814423 505.004669,222.038712 
z"/>
<path fill="#4F4F4F" opacity="1.000000" stroke="none" 
	d="
M505.119629,257.148010 
	C505.472046,257.895935 505.533722,258.743408 505.471619,259.889343 
	C505.174896,259.207733 505.001892,258.227631 505.119629,257.148010 
z"/>
<path fill="#4F4F4F" opacity="1.000000" stroke="none" 
	d="
M505.013672,148.037659 
	C505.406158,149.305161 505.470795,150.803558 505.434631,152.744171 
	C505.117828,151.547104 504.901825,149.907837 505.013672,148.037659 
z"/>
<path fill="#4F4F4F" opacity="1.000000" stroke="none" 
	d="
M505.151215,231.128830 
	C505.473419,231.591476 505.532837,232.135681 505.475189,232.933472 
	C505.201569,232.528183 505.044983,231.869278 505.151215,231.128830 
z"/>
<path fill="#4F4F4F" opacity="1.000000" stroke="none" 
	d="
M505.027710,162.024872 
	C505.414307,162.979385 505.478363,164.150726 505.443848,165.754440 
	C505.131927,164.871780 504.918518,163.556732 505.027710,162.024872 
z"/>
<path fill="#4F4F4F" opacity="1.000000" stroke="none" 
	d="
M505.060425,284.000458 
	C505.437195,284.651398 505.500214,285.502106 505.462219,286.770996 
	C505.156372,286.192871 504.951508,285.196564 505.060425,284.000458 
z"/>
<path fill="#4F4F4F" opacity="1.000000" stroke="none" 
	d="
M505.066101,177.997742 
	C505.410919,178.352219 505.467926,178.870468 505.430328,179.771347 
	C505.149933,179.489822 504.964142,178.825668 505.066101,177.997742 
z"/>
<path fill="#4F4F4F" opacity="1.000000" stroke="none" 
	d="
M505.050781,157.007950 
	C505.401398,157.359314 505.466034,157.876419 505.441528,158.777527 
	C505.156464,158.498901 504.960632,157.836288 505.050781,157.007950 
z"/>
<path fill="#4F4F4F" opacity="1.000000" stroke="none" 
	d="
M505.071350,143.005219 
	C505.337097,143.094788 505.387146,143.297897 505.378845,143.809830 
	C505.165527,143.785339 505.010590,143.452042 505.071350,143.005219 
z"/>
</svg>