<?xml version="1.0" encoding="utf-8"?>
<!-- Generator: Adobe Illustrator 16.0.3, SVG Export Plug-In . SVG Version: 6.00 Build 0)  -->
<!DOCTYPE svg PUBLIC "-//W3C//DTD SVG 1.1//EN" "http://www.w3.org/Graphics/SVG/1.1/DTD/svg11.dtd">
<svg version="1.1" id="Layer_1" xmlns="http://www.w3.org/2000/svg" xmlns:xlink="http://www.w3.org/1999/xlink" x="0px" y="0px"
	 width="1080px" height="1000.455px" viewBox="-506.438 -469.284 1080 1000.455"
	 enable-background="new -506.438 -469.284 1080 1000.455" xml:space="preserve">
<g id="Layer_1_1_">
	<path fill="#5C5C5C" d="M132.987-248.891c-17.574,30.396-50.41,50.874-88.096,50.874c-56.187,0-101.723-45.545-101.723-101.723
		c0-56.187,45.553-101.739,101.723-101.739c37.653,0,70.521,20.47,88.096,50.865l58.773-33.91
		c-29.354-50.67-84.157-84.76-146.869-84.76c-93.645,0-169.561,75.899-169.561,169.56c0,93.636,75.916,169.568,169.561,169.568
		c62.776,0,117.548-34.089,146.869-84.776L132.987-248.891z"/>
	<path fill="#5C5C5C" d="M-248.782,412.419c-17.598,30.396-50.443,50.883-88.112,50.883c-56.187,0-101.723-45.529-101.723-101.716
		s45.537-101.715,101.723-101.715c37.653,0,70.498,20.486,88.112,50.866l58.765-33.927c-29.33-50.671-84.109-84.744-146.861-84.744
		c-93.644,0-169.561,75.908-169.561,169.553c0,93.66,75.917,169.552,169.561,169.552c62.769,0,117.547-34.089,146.861-84.76
		L-248.782,412.419z"/>
	<path fill="#5C5C5C" d="M514.788,412.419c-17.573,30.396-50.409,50.883-88.063,50.883c-56.203,0-101.764-45.529-101.764-101.716
		s45.561-101.715,101.764-101.715c37.653,0,70.489,20.486,88.063,50.866l58.774-33.927c-29.354-50.671-84.125-84.744-146.854-84.744
		c-93.66,0-169.601,75.908-169.601,169.553c0,93.66,75.94,169.552,169.601,169.552c62.744,0,117.548-34.089,146.854-84.76
		L514.788,412.419z"/>
	<g>
		<path fill="#CCCCCC" d="M38.122,296.955V147.889h-149.058C-107.47,228.662-42.643,293.505,38.122,296.955z"/>
		<path fill="#CCCCCC" d="M51.693-14.731v149.05h149.05C197.293,53.562,132.467-11.266,51.693-14.731z"/>
	</g>
	<path d="M44.924-28.449c-93.66,0-169.576,75.908-169.576,169.569c0,93.628,75.916,169.552,169.576,169.552
		c93.628,0,169.553-75.924,169.553-169.552C214.46,47.459,138.552-28.449,44.924-28.449z M38.122,134.318h-149.058
		c3.466-80.806,68.293-145.584,149.058-149.05V134.318z M51.693,296.955v-149.05h149.05
		C197.293,228.662,132.467,293.505,51.693,296.955z"/>
	<g>
		<path fill="#5C5C5C" d="M38.122,147.889h-149.058c3.466,80.773,68.317,145.616,149.058,149.066V147.889z"/>
		<path fill="#5C5C5C" d="M200.743,134.318c-3.45-80.806-68.293-145.584-149.05-149.05v149.05H200.743z"/>
	</g>
</g>
<g id="GUIDES" display="none">
</g>
</svg>
