<?xml version="1.0" encoding="utf-8"?>
<!-- Generator: Adobe Illustrator 16.0.0, SVG Export Plug-In . SVG Version: 6.00 Build 0)  -->
<!DOCTYPE svg PUBLIC "-//W3C//DTD SVG 1.1//EN" "http://www.w3.org/Graphics/SVG/1.1/DTD/svg11.dtd">
<svg version="1.1" id="Layer_1" xmlns="http://www.w3.org/2000/svg" xmlns:xlink="http://www.w3.org/1999/xlink" x="0px" y="0px"
	 width="1200px" height="648px" viewBox="0 0 1200 648" enable-background="new 0 0 1200 648" xml:space="preserve">
<path fill="#D6D3E0" d="M964.123,622c0,5.522-4.478,10-10,10h-94.349c-5.522,0-10-4.478-10-10v-43.497c0-5.522,4.478-10,10-10
	h94.349c5.522,0,10,4.478,10,10V622z"/>
<line fill="none" stroke="#00539B" stroke-width="3" stroke-miterlimit="10" x1="918.031" y1="212.878" x2="918.031" y2="229.776"/>
<line fill="none" stroke="#00539B" stroke-width="3" stroke-miterlimit="10" x1="699.109" y1="230" x2="1126.834" y2="231.553"/>
<line fill="none" stroke="#D6D3E0" stroke-width="3" stroke-miterlimit="10" x1="1141.516" y1="289.776" x2="1141.516" y2="526.253"/>
<line fill="none" stroke="#D6D3E0" stroke-width="3" stroke-miterlimit="10" x1="818.516" y1="289.776" x2="818.516" y2="602.776"/>
<path fill="#02539C" d="M1186.599,289.776c0,5.523-4.478,10-10,10h-107.167c-5.522,0-10-4.477-10-10v-39.001c0-5.523,4.478-10,10-10
	h107.167c5.522,0,10,4.477,10,10V289.776z"/>
<path fill="#02539C" d="M1050.266,289.776c0,5.523-4.478,10-10,10H933.099c-5.522,0-10-4.477-10-10v-39.001c0-5.523,4.478-10,10-10
	h107.167c5.522,0,10,4.477,10,10V289.776z"/>
<path fill="#02539C" d="M913.932,289.776c0,5.521-4.478,10-10,10H796.765c-5.522,0-10-4.479-10-10v-39.001c0-5.523,4.478-10,10-10
	h107.167c5.522,0,10,4.477,10,10V289.776z"/>
<path fill="#02539C" d="M777.599,289.776c0,5.523-4.478,10-10,10H660.432c-5.522,0-10-4.477-10-10v-39.001c0-5.523,4.478-10,10-10
	h107.167c5.522,0,10,4.477,10,10V289.776z"/>
<path fill="#02539C" d="M716.244,84.098c0,5.523-4.478,10-10,10H493.756c-5.523,0-10-4.477-10-10V32.102c0-5.523,4.477-10,10-10
	h212.488c5.522,0,10,4.477,10,10V84.098z"/>
<path fill="#FFFFFF" stroke="#00539B" stroke-width="3" stroke-miterlimit="10" d="M397.76,203.102c0,5.523-4.478,10-10,10H175.271
	c-5.523,0-10-4.477-10-10v-51.996c0-5.523,4.477-10,10-10H387.76c5.522,0,10,4.477,10,10V203.102z"/>
<path fill="#FFFFFF" stroke="#00539B" stroke-width="3" stroke-miterlimit="10" d="M1032.818,203.102c0,5.523-4.478,10-10,10H810.33
	c-5.523,0-10-4.477-10-10v-51.996c0-5.523,4.477-10,10-10h212.488c5.522,0,10,4.477,10,10V203.102z"/>
<text transform="matrix(1 0 0 1 511.5933 64.7139)" fill="#FFFFFF" font-family="'OpenSans-Bold'" font-size="21.0219">General Manager</text>
<text transform="matrix(1 0 0 1 202.5933 183.7139)" fill="#02539C" font-family="'OpenSans-Bold'" font-size="18">Project Manager</text>
<text transform="matrix(1 0 0 1 825.3262 172.7139)"><tspan x="0" y="0" fill="#02539C" font-family="'OpenSans-Bold'" font-size="18">Director of Financial</tspan><tspan x="12.678" y="24" fill="#02539C" font-family="'OpenSans-Bold'" font-size="18">&amp; Administrative </tspan></text>
<path fill="#02539C" d="M151,271c0,5.522-4.477,10-10,10H43c-5.523,0-10-4.478-10-10v-19c0-5.523,4.477-10,10-10h98
	c5.523,0,10,4.477,10,10V271z"/>
<text transform="matrix(1 0 0 1 47.5933 265.7139)" fill="#FFFFFF" font-family="'OpenSans-Bold'" font-size="14">Site Engineer</text>
<path fill="#02539C" d="M281.516,271c0,5.522-4.477,10-10,10h-98c-5.523,0-10-4.478-10-10v-19c0-5.523,4.477-10,10-10h98
	c5.523,0,10,4.477,10,10V271z"/>
<text transform="matrix(1 0 0 1 178.1089 265.7139)" fill="#FFFFFF" font-family="'OpenSans-Bold'" font-size="14">Site Engineer</text>
<path fill="#02539C" d="M442.184,271c0,5.522-4.477,10-10,10h-98c-5.523,0-10-4.478-10-10v-19c0-5.523,4.477-10,10-10h98
	c5.523,0,10,4.477,10,10V271z"/>
<text transform="matrix(1 0 0 1 338.7773 265.7139)" fill="#FFFFFF" font-family="'OpenSans-Bold'" font-size="14">Site Engineer</text>
<path fill="#02539C" d="M576,271c0,5.522-4.477,10-10,10h-98c-5.523,0-10-4.478-10-10v-19c0-5.523,4.477-10,10-10h98
	c5.523,0,10,4.477,10,10V271z"/>
<text transform="matrix(1 0 0 1 472.5933 265.7139)" fill="#FFFFFF" font-family="'OpenSans-Bold'" font-size="14">Site Engineer</text>
<path fill="#D6D3E0" d="M130.5,320c0,5.522-4.477,10-10,10h-57c-5.523,0-10-4.478-10-10v-14c0-5.522,4.477-10,10-10h57
	c5.523,0,10,4.478,10,10V320z"/>
<text transform="matrix(1 0 0 1 64.5933 318)" fill="#FFFFFF" font-family="'OpenSans-Bold'" font-size="14">Forman</text>
<path fill="#D6D3E0" d="M130.5,361c0,5.522-4.477,10-10,10h-57c-5.523,0-10-4.478-10-10v-14c0-5.522,4.477-10,10-10h57
	c5.523,0,10,4.478,10,10V361z"/>
<text transform="matrix(1 0 0 1 64.5933 359)" fill="#FFFFFF" font-family="'OpenSans-Bold'" font-size="14">Forman</text>
<path fill="#D6D3E0" d="M261.016,320c0,5.522-4.477,10-10,10h-57c-5.523,0-10-4.478-10-10v-14c0-5.522,4.477-10,10-10h57
	c5.523,0,10,4.478,10,10V320z"/>
<text transform="matrix(1 0 0 1 195.1089 318)" fill="#FFFFFF" font-family="'OpenSans-Bold'" font-size="14">Forman</text>
<path fill="#D6D3E0" d="M261.016,361c0,5.522-4.477,10-10,10h-57c-5.523,0-10-4.478-10-10v-14c0-5.522,4.477-10,10-10h57
	c5.523,0,10,4.478,10,10V361z"/>
<text transform="matrix(1 0 0 1 195.1089 359)" fill="#FFFFFF" font-family="'OpenSans-Bold'" font-size="14">Forman</text>
<path fill="#D6D3E0" d="M421.684,320c0,5.522-4.477,10-10,10h-57c-5.523,0-10-4.478-10-10v-14c0-5.522,4.477-10,10-10h57
	c5.523,0,10,4.478,10,10V320z"/>
<text transform="matrix(1 0 0 1 355.7773 318)" fill="#FFFFFF" font-family="'OpenSans-Bold'" font-size="14">Forman</text>
<path fill="#D6D3E0" d="M421.684,361c0,5.522-4.477,10-10,10h-57c-5.523,0-10-4.478-10-10v-14c0-5.522,4.477-10,10-10h57
	c5.523,0,10,4.478,10,10V361z"/>
<text transform="matrix(1 0 0 1 355.7773 359)" fill="#FFFFFF" font-family="'OpenSans-Bold'" font-size="14">Forman</text>
<path fill="#D6D3E0" d="M555.5,320c0,5.522-4.477,10-10,10h-57c-5.523,0-10-4.478-10-10v-14c0-5.522,4.477-10,10-10h57
	c5.523,0,10,4.478,10,10V320z"/>
<text transform="matrix(1 0 0 1 489.5933 318)" fill="#FFFFFF" font-family="'OpenSans-Bold'" font-size="14">Forman</text>
<path fill="#D6D3E0" d="M555.5,361c0,5.522-4.477,10-10,10h-57c-5.523,0-10-4.478-10-10v-14c0-5.522,4.477-10,10-10h57
	c5.523,0,10,4.478,10,10V361z"/>
<text transform="matrix(1 0 0 1 489.5933 359)" fill="#FFFFFF" font-family="'OpenSans-Bold'" font-size="14">Forman</text>
<path fill="#02539C" d="M171.851,444c0,5.522-4.477,10-10,10h-98c-5.523,0-10-4.478-10-10v-19c0-5.523,4.477-10,10-10h98
	c5.523,0,10,4.477,10,10V444z"/>
<text transform="matrix(1 0 0 1 68.4443 438.7139)" fill="#FFFFFF" font-family="'OpenSans-Bold'" font-size="14">Site Engineer</text>
<path fill="#02539C" d="M306.567,444c0,5.522-4.477,10-10,10h-98c-5.523,0-10-4.478-10-10v-19c0-5.523,4.477-10,10-10h98
	c5.523,0,10,4.477,10,10V444z"/>
<text transform="matrix(1 0 0 1 198.96 438.7139)" fill="#FFFFFF" font-family="'OpenSans-Bold'" font-size="14">Site Engineer</text>
<path fill="#02539C" d="M441.284,444c0,5.522-4.477,10-10,10h-98c-5.522,0-10-4.478-10-10v-19c0-5.523,4.478-10,10-10h98
	c5.523,0,10,4.477,10,10V444z"/>
<text transform="matrix(1 0 0 1 338.7773 438.7139)" fill="#FFFFFF" font-family="'OpenSans-Bold'" font-size="14">Site Engineer</text>
<path fill="#02539C" d="M576,444c0,5.522-4.477,10-10,10h-98c-5.523,0-10-4.478-10-10v-19c0-5.523,4.477-10,10-10h98
	c5.523,0,10,4.477,10,10V444z"/>
<text transform="matrix(1 0 0 1 472.5933 438.7139)" fill="#FFFFFF" font-family="'OpenSans-Bold'" font-size="14">Site Engineer</text>
<path fill="#D6D3E0" d="M145.093,501.5c0,5.522-4.477,10-10,10h-57c-5.523,0-10-4.478-10-10v-14c0-5.522,4.477-10,10-10h57
	c5.523,0,10,4.478,10,10V501.5z"/>
<text transform="matrix(1 0 0 1 79.1865 499.5)" fill="#FFFFFF" font-family="'OpenSans-Bold'" font-size="14">Forman</text>
<path fill="#D6D3E0" d="M145.093,542.5c0,5.522-4.477,10-10,10h-57c-5.523,0-10-4.478-10-10v-14c0-5.522,4.477-10,10-10h57
	c5.523,0,10,4.478,10,10V542.5z"/>
<text transform="matrix(1 0 0 1 79.1865 540.5)" fill="#FFFFFF" font-family="'OpenSans-Bold'" font-size="14">Forman</text>
<path fill="#D6D3E0" d="M275.609,501.5c0,5.522-4.477,10-10,10h-57c-5.523,0-10-4.478-10-10v-14c0-5.522,4.477-10,10-10h57
	c5.523,0,10,4.478,10,10V501.5z"/>
<text transform="matrix(1 0 0 1 209.7021 499.5)" fill="#FFFFFF" font-family="'OpenSans-Bold'" font-size="14">Forman</text>
<path fill="#D6D3E0" d="M275.609,542.5c0,5.522-4.477,10-10,10h-57c-5.523,0-10-4.478-10-10v-14c0-5.522,4.477-10,10-10h57
	c5.523,0,10,4.478,10,10V542.5z"/>
<text transform="matrix(1 0 0 1 209.7021 540.5)" fill="#FFFFFF" font-family="'OpenSans-Bold'" font-size="14">Forman</text>
<path fill="#D6D3E0" d="M421.684,501c0,5.522-4.477,10-10,10h-57c-5.522,0-10-4.478-10-10v-14c0-5.522,4.478-10,10-10h57
	c5.523,0,10,4.478,10,10V501z"/>
<text transform="matrix(1 0 0 1 355.7773 499)" fill="#FFFFFF" font-family="'OpenSans-Bold'" font-size="14">Forman</text>
<path fill="#D6D3E0" d="M421.684,542c0,5.522-4.477,10-10,10h-57c-5.522,0-10-4.478-10-10v-14c0-5.522,4.478-10,10-10h57
	c5.523,0,10,4.478,10,10V542z"/>
<text transform="matrix(1 0 0 1 355.7773 540)" fill="#FFFFFF" font-family="'OpenSans-Bold'" font-size="14">Forman</text>
<path fill="#D6D3E0" d="M555.5,501c0,5.522-4.477,10-10,10h-57c-5.523,0-10-4.478-10-10v-14c0-5.522,4.477-10,10-10h57
	c5.523,0,10,4.478,10,10V501z"/>
<text transform="matrix(1 0 0 1 489.5933 499)" fill="#FFFFFF" font-family="'OpenSans-Bold'" font-size="14">Forman</text>
<path fill="#D6D3E0" d="M555.5,542c0,5.522-4.477,10-10,10h-57c-5.523,0-10-4.478-10-10v-14c0-5.522,4.477-10,10-10h57
	c5.523,0,10,4.478,10,10V542z"/>
<text transform="matrix(1 0 0 1 489.5933 540)" fill="#FFFFFF" font-family="'OpenSans-Bold'" font-size="14">Forman</text>
<text transform="matrix(1 0 0 1 669.4316 270.2754)"><tspan x="0" y="0" fill="#FFFFFF" font-family="'OpenSans-Bold'" font-size="14">Purchases &amp; </tspan><tspan x="-14.301" y="16.799" fill="#FFFFFF" font-family="'OpenSans-Bold'" font-size="14">Marketing Ofce</tspan></text>
<text transform="matrix(1 0 0 1 800.124 274.4902)" fill="#FFFFFF" font-family="'OpenSans-Bold'" font-size="14">Cheif Accounts</text>
<text transform="matrix(1 0 0 1 938.96 270.2754)"><tspan x="0" y="0" fill="#FFFFFF" font-family="'OpenSans-Bold'" font-size="14">Maintenance </tspan><tspan x="23.69" y="16.8" fill="#FFFFFF" font-family="'OpenSans-Bold'" font-size="14">Ofcer</tspan></text>
<text transform="matrix(1 0 0 1 1073.7578 274.4902)" fill="#FFFFFF" font-family="'OpenSans-Bold'" font-size="14">Administrator</text>
<path fill="#D6D3E0" d="M962.559,354.503c0,5.521-4.478,10-10,10h-92.784c-5.522,0-10-4.479-10-10v-30c0-5.523,4.478-10,10-10
	h92.784c5.522,0,10,4.477,10,10V354.503z"/>
<text transform="matrix(1 0 0 1 890.1387 335.0508)"><tspan x="0" y="0" fill="#FFFFFF" font-family="'OpenSans-Bold'" font-size="14">Site </tspan><tspan x="-25.484" y="16.799" fill="#FFFFFF" font-family="'OpenSans-Bold'" font-size="14">Accountant</tspan></text>
<path fill="#D6D3E0" d="M962.559,416.753c0,5.521-4.478,10-10,10h-92.784c-5.522,0-10-4.479-10-10v-30c0-5.523,4.478-10,10-10
	h92.784c5.522,0,10,4.477,10,10V416.753z"/>
<text transform="matrix(1 0 0 1 873.6172 394.3242)"><tspan x="0" y="0" fill="#FFFFFF" font-family="'OpenSans-Bold'" font-size="14">Financial</tspan><tspan x="-8.963" y="16.799" fill="#FFFFFF" font-family="'OpenSans-Bold'" font-size="14">Accountant</tspan></text>
<path fill="#D6D3E0" d="M962.559,479.003c0,5.521-4.478,10-10,10h-92.784c-5.522,0-10-4.479-10-10v-30c0-5.523,4.478-10,10-10
	h92.784c5.522,0,10,4.477,10,10V479.003z"/>
<text transform="matrix(1 0 0 1 892.418 458.3242)"><tspan x="0" y="0" fill="#FFFFFF" font-family="'OpenSans-Bold'" font-size="14">Cost</tspan><tspan x="-25.156" y="16.799" fill="#FFFFFF" font-family="'OpenSans-Bold'" font-size="14">Accountant</tspan></text>
<path fill="#D6D3E0" d="M962.559,541.253c0,5.521-4.478,10-10,10h-92.784c-5.522,0-10-4.479-10-10v-30c0-5.523,4.478-10,10-10
	h92.784c5.522,0,10,4.477,10,10V541.253z"/>
<text transform="matrix(1 0 0 1 883.8262 522.3242)"><tspan x="0" y="0" fill="#FFFFFF" font-family="'OpenSans-Bold'" font-size="14">Public</tspan><tspan x="-19.172" y="16.799" fill="#FFFFFF" font-family="'OpenSans-Bold'" font-size="14">Accountant</tspan></text>
<text transform="matrix(1 0 0 1 860.4824 588.0508)"><tspan x="0" y="0" fill="#FFFFFF" font-family="'OpenSans-Bold'" font-size="14">Customers &amp; </tspan><tspan x="14.086" y="16.799" fill="#FFFFFF" font-family="'OpenSans-Bold'" font-size="14">Suppliers</tspan><tspan x="5.998" y="33.6" fill="#FFFFFF" font-family="'OpenSans-Bold'" font-size="14">Accountant</tspan></text>
<path fill="#D6D3E0" d="M1104.559,354.503c0,5.521-4.478,10-10,10h-92.784c-5.522,0-10-4.479-10-10v-30c0-5.523,4.478-10,10-10
	h92.784c5.522,0,10,4.477,10,10V354.503z"/>
<text transform="matrix(1 0 0 1 1035.3281 335.0508)"><tspan x="0" y="0" fill="#FFFFFF" font-family="'OpenSans-Bold'" font-size="14">HR </tspan><tspan x="-12.236" y="16.799" fill="#FFFFFF" font-family="'OpenSans-Bold'" font-size="14">Ofcer</tspan></text>
<path fill="#D6D3E0" d="M1104.559,416.753c0,5.521-4.478,10-10,10h-92.784c-5.522,0-10-4.479-10-10v-30c0-5.523,4.478-10,10-10
	h92.784c5.522,0,10,4.477,10,10V416.753z"/>
<text transform="matrix(1 0 0 1 1018.7852 401.7539)" fill="#FFFFFF" font-family="'OpenSans-Bold'" font-size="14">Delegate</text>
<path fill="#D6D3E0" d="M1104.559,479.003c0,5.521-4.478,10-10,10h-92.784c-5.522,0-10-4.479-10-10v-30c0-5.523,4.478-10,10-10
	h92.784c5.522,0,10,4.477,10,10V479.003z"/>
<text transform="matrix(1 0 0 1 1013.4355 466.5508)" fill="#FFFFFF" font-family="'OpenSans-Bold'" font-size="14">Delegate</text>
<path fill="#D6D3E0" d="M1104.559,541.253c0,5.521-4.478,10-10,10h-92.784c-5.522,0-10-4.479-10-10v-30c0-5.523,4.478-10,10-10
	h92.784c5.522,0,10,4.477,10,10V541.253z"/>
<text transform="matrix(1 0 0 1 1018.6924 531.7773)" fill="#FFFFFF" font-family="'OpenSans-Bold'" font-size="14">Delagate</text>
<line fill="none" stroke="#00539B" stroke-width="3" stroke-miterlimit="10" x1="281.516" y1="213.102" x2="281.516" y2="230"/>
<line fill="none" stroke="#00539B" stroke-width="3" stroke-miterlimit="10" x1="64.593" y1="230" x2="518.75" y2="230"/>
<line fill="none" stroke="#00539B" stroke-width="3" stroke-miterlimit="10" x1="64.593" y1="230" x2="64.593" y2="242"/>
<line fill="none" stroke="#00539B" stroke-width="3" stroke-miterlimit="10" x1="222.516" y1="230" x2="222.516" y2="242"/>
<line fill="none" stroke="#00539B" stroke-width="3" stroke-miterlimit="10" x1="382.284" y1="230" x2="382.284" y2="242"/>
<line fill="none" stroke="#00539B" stroke-width="3" stroke-miterlimit="10" x1="517" y1="230" x2="517" y2="242"/>
<line fill="none" stroke="#00539B" stroke-width="3" stroke-miterlimit="10" x1="298" y1="230" x2="298" y2="392.977"/>
<line fill="none" stroke="#00539B" stroke-width="3" stroke-miterlimit="10" x1="90.5" y1="392.977" x2="517" y2="392.977"/>
<line fill="none" stroke="#00539B" stroke-width="3" stroke-miterlimit="10" x1="92" y1="392.977" x2="92" y2="417.977"/>
<line fill="none" stroke="#00539B" stroke-width="3" stroke-miterlimit="10" x1="247.567" y1="392.977" x2="247.567" y2="417.977"/>
<line fill="none" stroke="#00539B" stroke-width="3" stroke-miterlimit="10" x1="383.184" y1="392.977" x2="383.184" y2="417.977"/>
<line fill="none" stroke="#00539B" stroke-width="3" stroke-miterlimit="10" x1="517" y1="392.977" x2="517" y2="417.977"/>
<line fill="none" stroke="#D6D3E0" stroke-width="3" stroke-miterlimit="10" x1="818.516" y1="602.776" x2="854.516" y2="602.776"/>
<line fill="none" stroke="#D6D3E0" stroke-width="3" stroke-miterlimit="10" x1="818.516" y1="526.253" x2="854.516" y2="526.253"/>
<line fill="none" stroke="#D6D3E0" stroke-width="3" stroke-miterlimit="10" x1="818.516" y1="464.003" x2="854.516" y2="464.003"/>
<line fill="none" stroke="#D6D3E0" stroke-width="3" stroke-miterlimit="10" x1="818.516" y1="401.753" x2="854.516" y2="401.753"/>
<line fill="none" stroke="#D6D3E0" stroke-width="3" stroke-miterlimit="10" x1="818.516" y1="339.503" x2="854.516" y2="339.503"/>
<line fill="none" stroke="#D6D3E0" stroke-width="3" stroke-miterlimit="10" x1="1141.516" y1="526.253" x2="1097.516" y2="526.253"/>
<line fill="none" stroke="#D6D3E0" stroke-width="3" stroke-miterlimit="10" x1="1141.516" y1="464.003" x2="1097.516" y2="464.003"/>
<line fill="none" stroke="#D6D3E0" stroke-width="3" stroke-miterlimit="10" x1="1141.516" y1="401.753" x2="1097.516" y2="401.753"/>
<line fill="none" stroke="#D6D3E0" stroke-width="3" stroke-miterlimit="10" x1="1141.516" y1="338.776" x2="1097.516" y2="338.776"/>
<line fill="none" stroke="#00539B" stroke-width="3" stroke-miterlimit="10" x1="275.609" y1="121.097" x2="923.583" y2="121.097"/>
<line fill="none" stroke="#00539B" stroke-width="3" stroke-miterlimit="10" x1="275.609" y1="121.097" x2="275.609" y2="141.105"/>
<line fill="none" stroke="#00539B" stroke-width="3" stroke-miterlimit="10" x1="923.583" y1="121.097" x2="923.583" y2="141.105"/>
<line fill="none" stroke="#00539B" stroke-width="3" stroke-miterlimit="10" x1="600" y1="94.098" x2="600" y2="121.097"/>
<line fill="none" stroke="#00539B" stroke-width="3" stroke-miterlimit="10" x1="700.109" y1="228.776" x2="700.109" y2="240.776"/>
<line fill="none" stroke="#00539B" stroke-width="3" stroke-miterlimit="10" x1="859.031" y1="229.776" x2="859.031" y2="241.776"/>
<line fill="none" stroke="#00539B" stroke-width="3" stroke-miterlimit="10" x1="986.682" y1="230.11" x2="986.682" y2="242.11"/>
<line fill="none" stroke="#00539B" stroke-width="3" stroke-miterlimit="10" x1="1125.333" y1="231.553" x2="1125.333" y2="243.553"/>
</svg>
